<svg width="205" height="70" viewBox="0 0 205 70" fill="none" xmlns="http://www.w3.org/2000/svg">
<g id="logo-1 1" clip-path="url(#clip0_3:5)" filter="url(#filter0_dd_3:5)">
<g id="&#208;&#161;&#208;&#187;&#208;&#190;&#208;&#185;_x0020_1">
<path id="Vector" d="M160.744 44.4041C160.744 44.4041 159.15 44.8504 157.46 44.8504C155.259 44.8504 155.132 43.6072 155.132 42.4596C155.132 40.7383 155.833 40.3877 157.938 40.3877C158.958 40.3877 159.883 40.5152 160.744 40.7064V44.3722V44.4041ZM166.388 36.2437V36.2118C166.388 35.9887 166.388 35.7337 166.356 35.5105C166.101 30.4422 163.455 28.8165 158.065 28.8165C155.259 28.8165 152.102 29.2627 149.934 29.8365L149.902 34.4905C151.496 34.0123 154.366 33.6617 156.535 33.6617C159.469 33.6617 160.361 34.0123 160.648 35.5105C160.68 35.6699 160.712 35.8612 160.712 36.0843V36.1162C160.712 36.3075 160.744 36.5306 160.744 36.7856C159.245 36.4987 157.842 36.3393 156.567 36.3393C151.815 36.3393 149.041 37.3594 149.041 42.6509C149.041 45.7429 149.775 47.4005 151.656 48.2612C153.888 49.3131 159.277 48.4843 160.712 48.0062V48.7393H166.356V36.3075C166.356 36.2756 166.356 36.2437 166.356 36.2437H166.388Z" fill="#FEFEFE"/>
<path id="Vector_2" d="M140.846 34.108V42.7465C140.846 43.4478 139.602 43.9578 137.944 43.9578C135.329 43.9578 134.627 42.9059 134.627 39.017C134.627 34.108 135.584 33.6298 138.103 33.6298C138.869 33.6298 139.985 33.7573 140.878 34.108H140.846ZM138.071 28.8802C131.184 28.8802 128.632 31.6535 128.632 39.1445C128.632 46.1573 130.865 48.9943 136.381 48.9943C138.39 48.9943 139.985 48.4206 140.846 48.0062C140.782 50.2694 139.379 51.1938 136.094 51.1938C134.34 51.1938 132.491 50.9388 130.323 50.3332L130.195 50.3013L129.143 54.9871L129.238 55.019C131.088 55.6884 133.894 56.1347 136.19 56.1347C141.707 56.1347 146.777 55.019 146.777 46.9542V30.2509L146.681 30.219C144.577 29.4221 141.037 28.8802 138.04 28.8802H138.071Z" fill="#FEFEFE"/>
<path id="Vector_3" d="M66.5458 29.4221L73.1148 29.3902H73.2105L77.4835 40.1326L81.5333 29.454L81.5652 29.3902L88.2299 29.4221L80.8637 48.6756L80.8318 48.7393H74.1033L66.5458 29.4221Z" fill="#FEFEFE"/>
<path id="Vector_4" d="M99.5503 44.4041C99.5503 44.4041 97.9559 44.8504 96.2658 44.8504C94.0655 44.8504 93.9379 43.6072 93.9379 42.4596C93.9379 40.7383 94.6395 40.3877 96.7441 40.3877C97.7645 40.3877 98.6893 40.5152 99.5503 40.7064V44.3722V44.4041ZM96.7441 28.8483C94.9903 28.8483 92.9813 29.0077 91.068 29.3584H91.0042L89.1866 34.0761L88.9953 34.6818L89.2185 34.618C90.8448 34.2036 93.3958 33.6936 95.3729 33.6936C98.9444 33.6936 99.5184 34.363 99.5503 36.7856C98.0515 36.4987 96.6485 36.3393 95.3729 36.3393C90.6216 36.3393 87.8473 37.3594 87.8473 42.6509C87.8473 45.7429 88.5807 47.3686 90.4621 48.2612C92.6943 49.3131 98.0834 48.4843 99.5184 48.0062V48.7393H105.163V36.3075C105.163 30.9203 102.803 28.8165 96.7122 28.8165L96.7441 28.8483Z" fill="#FEFEFE"/>
<path id="Vector_5" d="M182.875 29.1671L180.898 34.2992L180.228 34.2036C179.941 34.2036 179.654 34.1717 179.399 34.1717C177.613 34.1717 175.7 34.7455 175.7 35.9568V48.7075H169.737V29.3265H175.7V30.6653C176.784 29.6452 177.804 28.944 180.164 28.8164C181.344 28.7527 182.364 28.9758 182.875 29.1352V29.1671Z" fill="#FEFEFE"/>
<path id="Vector_6" d="M156.599 17.1496L156.152 18.3609H92.4711L92.9175 17.1496H156.599Z" fill="#FEFEFE"/>
<path id="Vector_7" d="M164.698 14.2807C162.976 14.2807 162.051 15.0458 161.701 16.3846L161.669 16.5121C161.382 17.6278 161.637 18.1378 162.721 18.5203L163.646 18.8391C163.965 18.9347 164.029 19.0941 163.965 19.3491L163.901 19.5404C163.805 19.8591 163.55 20.0504 162.785 20.0504C162.37 20.0504 161.637 19.9229 161.063 19.7954L160.617 21.4211C161.254 21.5486 162.083 21.6761 162.562 21.6761C164.379 21.6761 165.336 20.9429 165.687 19.5722L165.751 19.3172C166.038 18.2015 165.782 17.6596 164.73 17.309L163.869 16.9902C163.486 16.8946 163.423 16.7352 163.486 16.4802L163.518 16.3208C163.614 16.0021 163.837 15.8108 164.379 15.8108C164.794 15.8108 165.495 15.9064 166.101 16.0021L166.548 14.4082C165.91 14.3126 165.272 14.217 164.73 14.217L164.698 14.2807ZM173.117 16.0339L173.531 14.4401H167.887L167.473 16.0339H169.386L167.951 21.4848H169.737L171.172 16.0339H173.085H173.117ZM177.326 19.0303L180.706 14.4401H178.761L176.88 17.5003L176.593 14.4401H174.616L175.572 19.0303L174.934 21.453H176.72L177.358 19.0303H177.326ZM182.364 19.8591L183.799 14.4082H182.014L180.164 21.453H184.597L185.011 19.8591H182.364ZM191.867 16.0021L192.282 14.4082H187.849L186 21.453H190.432L190.847 19.8591H188.2L188.519 18.6797H190.942L191.357 17.1177H188.933L189.22 16.0021H191.867Z" fill="#FEFEFE"/>
<path id="Vector_8" d="M60.8384 26.0113L69.7672 48.7712H52.8982L48.5295 33.7892L28.7906 46.3167L4.01331 62L38.676 0H50.6022L50.7617 0.382519L57.8409 18.3928L45.3088 22.7599L43.3317 15.9383L37.6874 27.7008L45.9465 24.8638L58.6381 20.4648L82.7457 12.145L60.8384 26.0113Z" fill="#FEFEFE"/>
<path id="Vector_9" d="M120.82 29.3902C113.9 28.402 108.415 30.4422 108.415 30.4422H108.383V48.7393H114.346V34.873C114.346 34.873 114.346 34.873 114.378 34.8411C114.378 34.8411 115.75 34.108 118.077 34.4267C118.683 34.4905 119.481 35.1599 119.736 35.7018C120.054 36.3393 120.15 37.3275 120.15 38.7938V48.7393H126.081V37.965C126.081 33.1198 124.838 29.964 120.852 29.3902H120.82Z" fill="#FEFEFE"/>
<path id="Vector_10" d="M192.058 33.9167C193.717 33.9167 195.311 34.5542 195.311 35.383V42.1409C195.311 42.4915 195.12 43.0334 194.801 43.1609C194.259 43.4159 193.334 43.7347 192.218 43.7028C189.507 43.6391 188.997 42.3002 188.838 38.7938C188.71 35.5105 189.38 33.8848 192.058 33.8848V33.9167ZM201.019 21.7398H195.311V30.3784C195.311 30.3784 192.728 29.3902 190.879 29.3902C186.191 29.3902 183.098 31.2709 183.098 38.8894C183.098 42.0133 183.64 44.181 184.565 45.7748C185.458 47.273 187.753 48.8031 191.197 48.7074C192.983 48.6756 194.609 48.2612 195.311 48.0061V48.7393H200.955V21.708L201.019 21.7398Z" fill="#FEFEFE"/>
</g>
</g>
<defs>
<filter id="filter0_dd_3:5" x="0" y="0" width="205" height="70" filterUnits="userSpaceOnUse" color-interpolation-filters="sRGB">
<feFlood flood-opacity="0" result="BackgroundImageFix"/>
<feColorMatrix in="SourceAlpha" type="matrix" values="0 0 0 0 0 0 0 0 0 0 0 0 0 0 0 0 0 0 127 0" result="hardAlpha"/>
<feOffset dy="4"/>
<feGaussianBlur stdDeviation="2"/>
<feComposite in2="hardAlpha" operator="out"/>
<feColorMatrix type="matrix" values="0 0 0 0 0 0 0 0 0 0 0 0 0 0 0 0 0 0 0.25 0"/>
<feBlend mode="normal" in2="BackgroundImageFix" result="effect1_dropShadow_3:5"/>
<feColorMatrix in="SourceAlpha" type="matrix" values="0 0 0 0 0 0 0 0 0 0 0 0 0 0 0 0 0 0 127 0" result="hardAlpha"/>
<feOffset dy="4"/>
<feGaussianBlur stdDeviation="2"/>
<feComposite in2="hardAlpha" operator="out"/>
<feColorMatrix type="matrix" values="0 0 0 0 0 0 0 0 0 0 0 0 0 0 0 0 0 0 0.25 0"/>
<feBlend mode="normal" in2="effect1_dropShadow_3:5" result="effect2_dropShadow_3:5"/>
<feBlend mode="normal" in="SourceGraphic" in2="effect2_dropShadow_3:5" result="shape"/>
</filter>
<clipPath id="clip0_3:5">
<rect width="197" height="62" fill="white" transform="translate(4)"/>
</clipPath>
</defs>
</svg>
